<?xml version="1.0" encoding="utf-8" ?>
<svg xmlns="http://www.w3.org/2000/svg" xmlns:xlink="http://www.w3.org/1999/xlink" width="1024" height="1024">
	<defs>
		<linearGradient id="gradient_0" gradientUnits="userSpaceOnUse" x1="383.38681" y1="355.2482" x2="144.49434" y2="104.62006">
			<stop offset="0" stop-color="#307C94"/>
			<stop offset="1" stop-color="#2BD1D1"/>
		</linearGradient>
	</defs>
	<path fill="url(#gradient_0)" transform="scale(2 2)" d="M100.408 351.673C76.5524 330.152 71.4788 310.115 71.5969 280.102C68.4045 277.146 64.3957 275.303 60.9664 272.661C35.8348 253.305 34.5292 213.382 61.7864 195.11C72.6049 187.858 69.6072 192.437 74.7325 180.282C84.7124 156.613 105.176 138.454 130.105 131.609C146.866 127.006 165.045 128.463 182.232 128.461L237.442 128.469C240.929 118.48 248.317 109.727 255.459 102.071C280.214 75.5352 319.083 67.5933 353.063 79.5283C375.532 87.4202 392.954 105.834 404.235 126.299C419.675 114.677 439.421 117.033 451.065 132.701C464.744 151.108 457.377 174.836 437.743 185.349C445.576 200.306 453.206 215.36 460.617 230.53C463.599 236.633 467.371 242.044 468.964 248.751C472.904 265.338 464.686 283.568 449.551 291.467C439.903 296.502 430.215 296.005 419.651 296.001L392.952 295.989C372.497 295.992 372.822 296.276 366.46 315.633C362.904 326.45 357.185 335.754 349.663 344.228C348.07 346.024 341.234 352.151 340.639 353.556C337.682 354.867 335.287 357.187 332.644 359.001C313.595 372.077 288.853 376.883 266.42 371.397C265.946 371.28 266.12 371.312 265.574 371.423L265.442 371.7L265.083 371.155C255.919 367.725 247.207 363.367 238.719 358.523C213.851 344.329 214.123 353.547 191.469 364.348C188.88 365.582 175.699 369.796 174.918 370.743C173.472 370.408 167.394 371.828 165.385 372.065C139.706 375.094 119.894 367.057 100.408 351.673Z"/>
	<path fill="#3F3D55" transform="scale(2 2)" d="M100.408 351.673C119.894 367.057 139.706 375.094 165.385 372.065C167.394 371.828 173.472 370.408 174.918 370.743C173.948 374.322 173.505 378.166 172.781 381.812L168.266 403.754C167.111 409.23 166.115 414.901 163.644 419.966C151.474 444.92 112.656 441.465 104.574 412.669C101.852 402.968 100.063 364.212 100.408 351.673Z"/>
	<path fill="#3F3D55" transform="scale(2 2)" d="M265.442 371.7L265.574 371.423C266.12 371.312 265.946 371.28 266.42 371.397C288.853 376.883 313.595 372.077 332.644 359.001C335.287 357.187 337.682 354.867 340.639 353.556C339.803 358.639 339.484 363.856 338.95 368.98L336.434 392.382C335.7 399.596 335.515 407.529 333.039 414.378C327.677 429.208 312.945 438.701 297.127 436.061C269.11 431.386 265.397 395.443 265.442 371.7Z"/>
</svg>
