<svg width="127" height="31" viewBox="0 0 127 31" fill="none" xmlns="http://www.w3.org/2000/svg">
<path d="M9.216 24.86C7.536 24.86 5.904 24.572 4.32 23.996C2.736 23.396 1.416 22.604 0.36 21.62L3.024 17.516C3.792 18.212 4.74 18.824 5.868 19.352C7.02 19.856 8.136 20.108 9.216 20.108C10.368 20.108 11.232 19.94 11.808 19.604C12.384 19.268 12.672 18.764 12.672 18.092C12.672 17.684 12.54 17.336 12.276 17.048C12.036 16.76 11.772 16.544 11.484 16.4C11.196 16.256 10.836 16.1 10.404 15.932L8.244 15.176C7.908 15.056 7.608 14.948 7.344 14.852C7.08 14.756 6.876 14.684 6.732 14.636C5.436 14.18 4.392 13.628 3.6 12.98C2.928 12.452 2.4 11.804 2.016 11.036C1.632 10.268 1.44 9.308 1.44 8.156C1.44 6.98 1.704 5.948 2.232 5.06C2.76 4.148 3.408 3.428 4.176 2.9C4.944 2.372 5.784 1.976 6.696 1.712C7.632 1.424 8.832 1.28 10.296 1.28C11.304 1.28 12.324 1.412 13.356 1.676C14.388 1.94 15.324 2.288 16.164 2.72C17.004 3.128 17.688 3.572 18.216 4.052L15.984 7.94C15.264 7.292 14.376 6.764 13.32 6.356C12.264 5.924 11.232 5.708 10.224 5.708C9.168 5.708 8.376 5.864 7.848 6.176C7.32 6.464 7.056 6.932 7.056 7.58C7.056 7.964 7.188 8.3 7.452 8.588C7.716 8.852 7.98 9.056 8.244 9.2C8.532 9.32 8.916 9.476 9.396 9.668C9.828 9.836 10.296 10.004 10.8 10.172C11.304 10.34 11.76 10.496 12.168 10.64C12.672 10.808 12.972 10.916 13.068 10.964C14.364 11.42 15.408 11.972 16.2 12.62C16.872 13.148 17.4 13.796 17.784 14.564C18.168 15.332 18.36 16.292 18.36 17.444C18.36 19.628 17.544 21.404 15.912 22.772C15.144 23.42 14.22 23.936 13.14 24.32C12.084 24.68 10.776 24.86 9.216 24.86ZM21.2456 0.955998H26.7896V10.028C27.3896 9.164 28.1216 8.456 28.9856 7.904C29.8736 7.328 30.9056 7.04 32.0816 7.04C35.9696 7.04 37.9136 9.26 37.9136 13.7V24.5H32.3696V14.852C32.3696 13.796 32.1776 13.004 31.7936 12.476C31.4336 11.924 30.7976 11.648 29.8856 11.648C29.2856 11.648 28.7576 11.804 28.3016 12.116C27.8696 12.404 27.5216 12.776 27.2576 13.232C27.0176 13.688 26.8616 14.156 26.7896 14.636V24.5H21.2456V0.955998ZM49.5546 24.86C47.8026 24.86 46.2546 24.512 44.9106 23.816C43.5666 23.12 42.5106 22.112 41.7426 20.792C40.9746 19.448 40.5906 17.84 40.5906 15.968C40.5906 14.096 40.9746 12.488 41.7426 11.144C42.5106 9.8 43.5666 8.78 44.9106 8.084C46.2546 7.388 47.7906 7.04 49.5186 7.04C51.1986 7.04 52.6386 7.412 53.8386 8.156C55.0386 8.876 55.9506 9.908 56.5746 11.252C57.2226 12.572 57.5466 14.108 57.5466 15.86V17.3H46.1346C46.1826 18.476 46.6026 19.364 47.3946 19.964C48.1866 20.54 49.1706 20.828 50.3466 20.828C51.0186 20.828 51.6786 20.744 52.3266 20.576C52.9986 20.408 53.5866 20.204 54.0906 19.964C54.6186 19.7 55.0146 19.46 55.2786 19.244L57.0786 22.448C56.6946 22.832 56.1426 23.216 55.4226 23.6C54.7026 23.96 53.8386 24.26 52.8306 24.5C51.8226 24.74 50.7306 24.86 49.5546 24.86ZM52.3266 13.952C52.3266 13.016 52.0626 12.236 51.5346 11.612C51.0306 10.988 50.2866 10.676 49.3026 10.676C48.3186 10.676 47.5506 10.988 46.9986 11.612C46.4466 12.236 46.1226 13.016 46.0266 13.952H52.3266ZM68.1171 24.86C66.3651 24.86 64.8171 24.512 63.4731 23.816C62.1291 23.12 61.0731 22.112 60.3051 20.792C59.5371 19.448 59.1531 17.84 59.1531 15.968C59.1531 14.096 59.5371 12.488 60.3051 11.144C61.0731 9.8 62.1291 8.78 63.4731 8.084C64.8171 7.388 66.3531 7.04 68.0811 7.04C69.7611 7.04 71.2011 7.412 72.4011 8.156C73.6011 8.876 74.5131 9.908 75.1371 11.252C75.7851 12.572 76.1091 14.108 76.1091 15.86V17.3H64.6971C64.7451 18.476 65.1651 19.364 65.9571 19.964C66.7491 20.54 67.7331 20.828 68.9091 20.828C69.5811 20.828 70.2411 20.744 70.8891 20.576C71.5611 20.408 72.1491 20.204 72.6531 19.964C73.1811 19.7 73.5771 19.46 73.8411 19.244L75.6411 22.448C75.2571 22.832 74.7051 23.216 73.9851 23.6C73.2651 23.96 72.4011 24.26 71.3931 24.5C70.3851 24.74 69.2931 24.86 68.1171 24.86ZM70.8891 13.952C70.8891 13.016 70.6251 12.236 70.0971 11.612C69.5931 10.988 68.8491 10.676 67.8651 10.676C66.8811 10.676 66.1131 10.988 65.5611 11.612C65.0091 12.236 64.6851 13.016 64.5891 13.952H70.8891ZM78.8676 7.4H84.1236L84.4116 9.668C84.5796 9.38 84.8676 9.044 85.2756 8.66C85.6836 8.252 86.2476 7.88 86.9676 7.544C87.7116 7.208 88.5756 7.04 89.5596 7.04C91.0236 7.04 92.3076 7.412 93.4116 8.156C94.5156 8.9 95.3676 9.944 95.9676 11.288C96.5676 12.632 96.8676 14.18 96.8676 15.932C96.8676 17.66 96.5436 19.208 95.8956 20.576C95.2716 21.92 94.3836 22.976 93.2316 23.744C92.1036 24.488 90.8076 24.86 89.3436 24.86C88.3836 24.86 87.5676 24.716 86.8956 24.428C86.2476 24.116 85.7436 23.78 85.3836 23.42C85.0236 23.06 84.6996 22.676 84.4116 22.268V30.404H78.8676V7.4ZM87.7236 20.576C88.4436 20.576 89.0676 20.372 89.5956 19.964C90.1236 19.532 90.5196 18.968 90.7836 18.272C91.0716 17.552 91.2156 16.76 91.2156 15.896C91.2156 15.032 91.0836 14.252 90.8196 13.556C90.5556 12.836 90.1596 12.272 89.6316 11.864C89.1276 11.432 88.5036 11.216 87.7596 11.216C87.0156 11.216 86.3796 11.432 85.8516 11.864C85.3236 12.272 84.9156 12.836 84.6276 13.556C84.3636 14.252 84.2316 15.032 84.2316 15.896C84.2316 16.76 84.3636 17.552 84.6276 18.272C84.8916 18.968 85.2876 19.532 85.8156 19.964C86.3436 20.372 86.9796 20.576 87.7236 20.576Z" fill="#3B3054"/>
<path d="M99.7144 0.955998H105.258V24.5H99.7144V0.955998ZM113.275 30.728C112.291 30.728 111.367 30.632 110.503 30.44C109.663 30.272 109.015 30.068 108.559 29.828L109.711 25.76C109.999 25.904 110.323 26.024 110.683 26.12C111.067 26.24 111.403 26.3 111.691 26.3C112.147 26.3 112.495 26.216 112.735 26.048C112.999 25.856 113.215 25.508 113.383 25.004L113.743 23.96L107.371 7.4H113.311L116.803 19.028L120.295 7.4H126.163L119.287 25.22C118.903 26.252 118.507 27.116 118.099 27.812C117.715 28.508 117.307 29.072 116.875 29.504C116.419 29.936 115.903 30.248 115.327 30.44C114.751 30.632 114.067 30.728 113.275 30.728Z" fill="#2BD1D1"/>
</svg>
